<svg width="85" height="24" viewBox="0 0 85 24" fill="none" xmlns="http://www.w3.org/2000/svg">
<path d="M16.9356 23.4783H22.5264L14.3855 1.30435H8.10818L0 23.4783H5.26378L6.73502 19.337H15.4644L16.9356 23.4783ZM10.4295 8.93478L11.1161 6.42391L11.7699 8.93478L14.0258 15.3261H8.17357L10.4295 8.93478Z" fill="#AFB1B8"/>
<path d="M22.8239 23.4783H27.8261V0H22.8239V23.4783Z" fill="#AFB1B8"/>
<path d="M46.1303 17.7065H40.8993C40.3761 19.3043 39.2645 20.0217 37.6298 20.0217C35.472 20.0217 34.1642 18.5217 33.9027 15.7174H45.9996V14.6087C45.9996 8.86956 42.6974 5.38043 37.4337 5.38043C32.2026 5.38043 28.8024 8.73913 28.8024 14.7065C28.8024 20.4783 32.1699 24 37.6298 24C41.9455 24 45.2149 21.75 46.1303 17.7065ZM37.4337 9.3587C39.2645 9.3587 40.4415 10.5652 40.8339 12.8478H34.0008C34.3931 10.5652 35.5701 9.3587 37.4337 9.3587Z" fill="#AFB1B8"/>
<path d="M57.0339 23.4783H62.8208L56.7723 14.413L62.3957 5.93478H57.1647L54.9088 9.65217L54.0914 11.3804L53.2413 9.65217L50.9527 5.93478H45.1659L50.822 14.413L44.7735 23.4783H50.0373L52.6855 19.1413L53.5356 17.4457L54.3529 19.1413L57.0339 23.4783Z" fill="#AFB1B8"/>
<path d="M63.034 4.17391H68.0363V0H63.034V4.17391ZM63.034 23.4783H68.0363V5.93478H63.034V23.4783Z" fill="#AFB1B8"/>
<path d="M74.1128 10.7935C74.1128 9.84783 74.9629 9.19565 76.2706 9.19565C78.0361 9.19565 79.0823 9.94565 79.3766 11.7391H84.3461C83.8557 7.30435 80.6517 5.38043 76.4341 5.38043C71.7261 5.38043 69.3394 8.11957 69.3394 11.0543C69.3394 18.0978 79.9978 15.0652 79.9978 18.4565C79.9978 19.5326 79.115 20.2174 77.3495 20.2174C75.486 20.2174 74.1455 19.337 73.9166 17.7065H68.9144C69.5683 22.0435 72.7723 24 77.2188 24C81.796 24 85 21.6196 85 18.163C85 11.2174 74.1128 14.25 74.1128 10.7935Z" fill="#AFB1B8"/>
</svg>
