<svg width="183" height="31" viewBox="0 0 183 31" fill="none" xmlns="http://www.w3.org/2000/svg">
<path d="M17.361 12.1288C20.177 11.4568 21.617 9.47278 21.617 7.07278C21.617 3.77678 19.185 1.28078 13.873 1.28078H0.625V24.0008H14.129C19.697 24.0008 22.193 21.1208 22.193 17.5688C22.193 14.5928 20.529 12.6088 17.361 12.1288ZM12.305 5.21678C14.737 5.21678 15.633 6.40078 15.633 7.80878C15.633 9.28078 14.833 10.5608 12.305 10.5608H6.353V5.21678H12.305ZM12.625 20.0648H6.353V14.2728H12.689C15.057 14.2728 16.209 15.3928 16.209 17.1208C16.209 18.8168 15.089 20.0648 12.625 20.0648Z" fill="#AFB1B8"/>
<path d="M33.3577 24.4808C39.1818 24.4808 43.3737 21.3768 43.3737 15.9688C43.3737 10.5608 39.1818 7.52078 33.3577 7.52078C27.5337 7.52078 23.3738 10.5608 23.3738 15.9688C23.3738 21.3768 27.5337 24.4808 33.3577 24.4808ZM33.3577 20.8008C30.6377 20.8008 28.9097 19.1048 28.9097 15.9688C28.9097 12.8328 30.6377 11.2008 33.3577 11.2008C36.0778 11.2008 37.8058 12.8328 37.8058 15.9688C37.8058 19.1048 36.0778 20.8008 33.3577 20.8008Z" fill="#AFB1B8"/>
<path d="M45.5085 5.69678H51.2685V0.928782H45.5085V5.69678ZM45.6365 24.0008H51.1085V8.00078H45.6365V24.0008Z" fill="#AFB1B8"/>
<path d="M60.5272 0.800781H55.0552V24.0008H60.5272V0.800781Z" fill="#AFB1B8"/>
<path d="M82.2265 15.9368C82.2265 10.6568 78.7385 7.52078 72.6585 7.52078C66.7705 7.52078 62.9625 10.7528 62.9625 16.1288C62.9625 21.3768 66.7385 24.4808 72.9785 24.4808C77.0745 24.4808 80.2425 22.9448 81.9065 20.2568L77.8105 18.4008C76.8505 19.9368 75.1865 20.7368 73.1065 20.7368C70.1945 20.7368 68.3705 19.4248 68.2105 17.2168H82.2265V15.9368ZM76.8505 14.2408H68.1785C68.3385 12.0008 69.9705 10.6568 72.5945 10.6568C75.1545 10.6568 76.8505 11.9688 76.8505 14.1768V14.2408Z" fill="#AFB1B8"/>
<path d="M89.6547 12.4168V8.00078H84.6627V24.0008H90.1347V17.9848C90.1347 16.2248 90.5187 14.7528 91.5747 13.7608C92.3747 12.9928 93.5587 12.5448 95.2547 12.5448C95.8627 12.5448 96.3427 12.5768 96.8867 12.6728V7.68078C96.5667 7.61678 96.3108 7.58478 95.8307 7.58478C92.6947 7.58478 90.5507 9.37678 89.6547 12.4168Z" fill="#AFB1B8"/>
<path d="M98.8278 30.2408H104.3V21.7608C105.644 23.4568 107.756 24.4808 110.444 24.4808C115.308 24.4808 118.636 21.0888 118.636 15.9368C118.636 10.8488 115.468 7.52078 110.668 7.52078C107.852 7.52078 105.452 8.60878 104.14 10.6888V8.00078H98.8278V30.2408ZM108.588 20.8008C105.932 20.8008 104.172 19.0408 104.172 16.3528V15.6808C104.172 12.8328 105.932 11.2008 108.62 11.2008C111.372 11.2008 112.972 12.9288 112.972 15.9368C112.972 18.9448 111.308 20.8008 108.588 20.8008Z" fill="#AFB1B8"/>
<path d="M126.593 0.800781H121.121V24.0008H126.593V0.800781Z" fill="#AFB1B8"/>
<path d="M135.781 24.4808C139.173 24.4808 141.669 23.2968 142.725 21.2808C142.725 22.2408 142.821 23.2328 142.949 24.0008H148.357C148.101 22.8808 147.973 21.3768 147.973 19.3288V14.3688C147.973 9.72878 145.189 7.52078 139.109 7.52078C133.701 7.52078 130.149 9.72878 129.733 13.3768H135.333C135.557 11.7768 136.869 10.9128 139.077 10.9128C141.253 10.9128 142.469 11.7768 142.469 13.5688V14.0488L136.517 14.5928C133.669 14.8808 132.069 15.3608 130.949 16.1288C129.829 16.9288 129.221 18.1448 129.221 19.6168C129.221 22.6248 131.749 24.4808 135.781 24.4808ZM137.861 21.1528C135.973 21.1528 134.821 20.4488 134.821 19.2648C134.821 18.0168 135.749 17.3768 138.181 17.0888L142.597 16.6408V17.6648C142.597 19.7768 140.677 21.1528 137.861 21.1528Z" fill="#AFB1B8"/>
<path d="M148.521 11.5848H152.137V18.4008C152.137 22.2728 154.281 24.3528 159.177 24.3528C160.585 24.3528 161.769 24.1928 162.889 23.9048V19.7448C162.281 19.8728 161.545 20.0008 160.617 20.0008C158.601 20.0008 157.609 19.0728 157.609 17.1848V11.5848H162.889V8.00078H157.609V2.14478L152.137 4.19278V8.00078H148.521V11.5848Z" fill="#AFB1B8"/>
<path d="M182.654 15.9368C182.654 10.6568 179.166 7.52078 173.086 7.52078C167.198 7.52078 163.39 10.7528 163.39 16.1288C163.39 21.3768 167.166 24.4808 173.406 24.4808C177.502 24.4808 180.67 22.9448 182.334 20.2568L178.238 18.4008C177.278 19.9368 175.614 20.7368 173.534 20.7368C170.622 20.7368 168.798 19.4248 168.638 17.2168H182.654V15.9368ZM177.278 14.2408H168.606C168.766 12.0008 170.398 10.6568 173.022 10.6568C175.582 10.6568 177.278 11.9688 177.278 14.1768V14.2408Z" fill="#AFB1B8"/>
</svg>
