<svg width="105" height="40" viewBox="0 0 105 40" fill="none" xmlns="http://www.w3.org/2000/svg">
<path d="M11.5131 2.70696C14.4486 2.70696 17.034 3.25913 19.2693 4.36346C21.5316 5.4678 23.2821 7.01656 24.5209 9.00975C25.7867 11.0029 26.4196 13.2789 26.4196 15.8378C26.4196 18.3966 25.8136 20.8342 24.6017 23.1506C23.3898 25.467 21.5854 27.3525 19.1885 28.807C16.7917 30.2614 13.9235 30.9887 10.584 30.9887H0V30.3422L1.41389 30.2614C2.32956 30.2076 3.04324 29.9248 3.55493 29.413C4.06663 28.9012 4.32247 28.2279 4.32247 27.3929V6.30278C4.32247 5.4678 4.06663 4.79443 3.55493 4.28266C3.04324 3.7709 2.31609 3.48808 1.3735 3.43421L0 3.3534V2.70696H11.5131ZM10.988 30.3018C13.3849 30.3018 15.5394 29.7093 17.4515 28.5241C19.3905 27.3121 20.8987 25.669 21.9759 23.595C23.0532 21.4941 23.5918 19.1373 23.5918 16.5246C23.5918 13.9658 23.0532 11.6898 21.9759 9.69659C20.8987 7.7034 19.3905 6.15464 17.4515 5.05031C15.5124 3.91904 13.2906 3.3534 10.786 3.3534H6.50391V27.4333C6.50391 28.2952 6.81362 28.9955 7.43304 29.5342C8.05246 30.046 8.87386 30.3018 9.89725 30.3018H10.988Z" fill="#AFB1B8"/>
<path d="M36.7416 29.2514C38.0074 29.2514 39.2328 28.9282 40.4178 28.2817C41.6297 27.6083 42.5723 26.6118 43.2456 25.2919H43.7707C42.1818 29.3861 39.5964 31.4331 36.0145 31.4331C33.7792 31.4331 31.9748 30.6789 30.6013 29.1706C29.2547 27.6622 28.5815 25.5478 28.5815 22.8274C28.5815 20.6187 29.0258 18.5851 29.9146 16.7266C30.8302 14.8412 32.0825 13.3463 33.6715 12.2419C35.2874 11.1376 37.0648 10.5854 39.0039 10.5854C40.6198 10.5854 41.9125 10.9625 42.882 11.7167C43.8784 12.444 44.3767 13.454 44.3767 14.7469C44.3767 18.437 39.8522 20.9285 30.8033 22.2214C30.8033 23.595 31.0591 24.8206 31.5708 25.898C32.1095 26.9754 32.8231 27.8104 33.7119 28.4029C34.6275 28.9686 35.6375 29.2514 36.7416 29.2514ZM30.7629 21.4941C34.6949 20.9823 37.5765 20.1878 39.4078 19.1104C41.2661 18.033 42.1952 16.5515 42.1952 14.6661C42.1952 13.5348 41.8721 12.6594 41.2257 12.0399C40.6063 11.3935 39.7041 11.0703 38.5191 11.0703C37.1187 11.0703 35.8394 11.5012 34.6814 12.3632C33.5503 13.2251 32.6346 14.4506 31.9344 16.0398C31.2342 17.602 30.8437 19.4201 30.7629 21.4941Z" fill="#AFB1B8"/>
<path d="M58.3477 10.5854C59.9905 10.5854 61.4717 11.0164 62.7914 11.8783C64.111 12.7133 65.1479 13.9119 65.9019 15.4741C66.656 17.0094 67.033 18.7737 67.033 20.7669C67.033 22.8409 66.6291 24.6455 65.8211 26.1808C65.0401 27.7161 63.909 28.9012 62.4278 29.7362C60.9735 30.5712 59.2768 30.9887 57.3378 30.9887C54.8062 30.9887 52.7325 30.1941 51.1167 28.6049V35.7966C51.1167 36.5508 51.359 37.1837 51.8438 37.6955C52.3555 38.2073 53.0422 38.4766 53.904 38.5035L55.2371 38.5439V39.1096H45.3803V38.5439L46.3094 38.5035C47.1712 38.4497 47.8445 38.1803 48.3293 37.6955C48.841 37.2376 49.0968 36.6046 49.0968 35.7966V15.2317C49.0968 14.4237 48.841 13.7907 48.3293 13.3328C47.8176 12.848 47.1308 12.6056 46.269 12.6056H45.5419V12.0399L50.9551 10.5854V14.7873C51.6822 13.4675 52.7056 12.444 54.0252 11.7167C55.3449 10.9625 56.7857 10.5854 58.3477 10.5854ZM57.1358 30.5847C58.617 30.5847 59.9232 30.2076 61.0543 29.4534C62.1854 28.6723 63.0607 27.5949 63.6801 26.2212C64.2995 24.8206 64.6092 23.191 64.6092 21.3325C64.6092 18.5582 63.909 16.363 62.5086 14.7469C61.1351 13.1039 59.2768 12.2823 56.9338 12.2823C54.4561 12.2823 52.5171 13.2924 51.1167 15.3125V26.706C51.6553 27.8912 52.4497 28.8339 53.5001 29.5342C54.5504 30.2345 55.7623 30.5847 57.1358 30.5847Z" fill="#AFB1B8"/>
<path d="M67.8337 10.9895C69.0187 10.774 70.1094 10.1949 71.1059 9.25216C72.1293 8.2825 72.8295 7.15124 73.2065 5.85836H73.7721V10.9895H81.1647V11.7167H73.7721V25.9788C73.7721 28.9147 75.1725 30.3827 77.9734 30.3827C79.0506 30.3827 80.1683 30.1941 81.3263 29.817V30.3422C79.9528 31.0695 78.5254 31.4331 77.0442 31.4331C75.5091 31.4331 74.2434 31.056 73.2469 30.3018C72.2505 29.5207 71.7522 28.376 71.7522 26.8676V11.5955H67.8337V10.9895Z" fill="#AFB1B8"/>
<path d="M105 30.4231V30.9887H95.547V30.4231L96.4761 30.3827C97.3379 30.3288 98.0112 30.0729 98.4959 29.615C99.0076 29.1302 99.2635 28.4837 99.2635 27.6757V18.2619C99.2635 13.9793 97.5937 11.8379 94.2543 11.8379C92.9885 11.8379 91.7631 12.1477 90.5781 12.7672C89.3932 13.3597 88.4236 14.1678 87.6696 15.1913V27.6757C87.6696 28.4837 87.9119 29.1302 88.3967 29.615C88.9084 30.0729 89.5951 30.3288 90.4569 30.3827L91.3861 30.4231V30.9887H81.9332V30.4231L82.8623 30.3827C83.7241 30.3288 84.3974 30.0729 84.8822 29.615C85.3939 29.1302 85.6497 28.4837 85.6497 27.6757V4.68668C85.6497 3.87863 85.3939 3.24566 84.8822 2.78777C84.3705 2.30294 83.6837 2.06053 82.8219 2.06053H82.0948V1.49489L87.6696 0V14.5045C88.4775 13.3193 89.5951 12.3766 91.0225 11.6763C92.4499 10.9491 93.9042 10.5854 95.3854 10.5854C97.2436 10.5854 98.6845 11.178 99.7078 12.3632C100.758 13.5214 101.283 15.1644 101.283 17.2923V27.6757C101.283 28.4837 101.526 29.1302 102.01 29.615C102.522 30.0729 103.209 30.3288 104.071 30.3827L105 30.4231Z" fill="#AFB1B8"/>
<path d="M101.894 3.38994V1.23324H102.875C103.002 1.23324 103.117 1.26051 103.22 1.31506C103.324 1.36766 103.404 1.44365 103.463 1.54301C103.523 1.64042 103.553 1.75634 103.553 1.89077C103.553 2.02714 103.523 2.14696 103.463 2.25022C103.402 2.35153 103.32 2.4314 103.214 2.48985C103.111 2.54635 102.994 2.5746 102.864 2.5746H102.051V2.33204H102.811C102.946 2.33204 103.053 2.29308 103.133 2.21515C103.214 2.13722 103.255 2.02909 103.255 1.89077C103.255 1.75049 103.214 1.64626 103.133 1.57807C103.053 1.50989 102.947 1.47579 102.814 1.47579H102.177V3.38994H101.894ZM103.109 2.4051L103.641 3.38994H103.325L102.802 2.4051H103.109ZM102.662 4.67577C102.339 4.67577 102.036 4.61538 101.753 4.49459C101.471 4.3738 101.222 4.20625 101.008 3.99194C100.794 3.77764 100.626 3.52924 100.505 3.24674C100.385 2.96425 100.324 2.6613 100.324 2.33789C100.324 2.01448 100.385 1.71153 100.505 1.42903C100.626 1.14654 100.794 0.898139 101.008 0.683832C101.222 0.469526 101.471 0.301977 101.753 0.181186C102.036 0.0603955 102.339 0 102.662 0C102.986 0 103.288 0.0603955 103.571 0.181186C103.853 0.301977 104.102 0.469526 104.316 0.683832C104.53 0.898139 104.698 1.14654 104.819 1.42903C104.94 1.71153 105 2.01448 105 2.33789C105 2.6613 104.94 2.96425 104.819 3.24674C104.698 3.52924 104.53 3.77764 104.316 3.99194C104.102 4.20625 103.853 4.3738 103.571 4.49459C103.288 4.61538 102.986 4.67577 102.662 4.67577ZM102.662 4.36308C103.036 4.36308 103.376 4.27249 103.682 4.0913C103.99 3.91012 104.234 3.66659 104.416 3.36071C104.597 3.05289 104.687 2.71195 104.687 2.33789C104.687 1.96383 104.596 1.62386 104.413 1.31798C104.231 1.01211 103.988 0.768581 103.682 0.587394C103.376 0.40426 103.036 0.312693 102.662 0.312693C102.288 0.312693 101.947 0.403286 101.639 0.584472C101.333 0.765658 101.09 1.01016 100.909 1.31798C100.728 1.62386 100.637 1.96383 100.637 2.33789C100.637 2.71 100.728 3.04997 100.909 3.35779C101.09 3.66561 101.333 3.91012 101.639 4.0913C101.947 4.27249 102.288 4.36308 102.662 4.36308Z" fill="#AFB1B8"/>
</svg>
