<svg width="144" height="21" viewBox="0 0 144 21" fill="none" xmlns="http://www.w3.org/2000/svg">
<path d="M54.3989 0H50.0243L46.6754 13.243L42.7532 0H39.6155L35.6934 13.243L32.3747 0H28L33.7323 21H37.2321L41.1844 8.25843L45.1367 21H48.6364L54.3989 0Z" fill="white"/>
<path d="M71.991 21L64.1467 0H60.8582L53.0441 21H57.4188L58.7161 17.2837H66.3492L67.6163 21H71.991ZM65.2329 13.8329H59.8927L62.6081 6.19382L65.2329 13.8329Z" fill="white"/>
<path d="M89.6917 21L84.8947 11.9452C86.9764 11.2079 88.8168 9.37921 88.8168 6.42977C88.8168 2.91994 86.2221 0 81.8475 0H73.43V21H77.6236V12.6236H80.6407L84.8343 21H89.6917ZM84.6231 6.42977C84.6231 8.05197 83.4163 9.20225 81.5759 9.20225H77.6236V3.6573H81.5759C83.4163 3.6573 84.6231 4.80758 84.6231 6.42977Z" fill="white"/>
<path d="M108.225 21L103.428 11.9452C105.51 11.2079 107.35 9.37921 107.35 6.42977C107.35 2.91994 104.756 0 100.381 0H91.9635V21H96.1571V12.6236H99.1741L103.368 21H108.225ZM103.157 6.42977C103.157 8.05197 101.95 9.20225 100.109 9.20225H96.1571V3.6573H100.109C101.95 3.6573 103.157 4.80758 103.157 6.42977Z" fill="white"/>
<path d="M124.647 21V17.3427H114.691V12.2402H123.168V8.58287H114.691V3.6573H124.647V0H110.497V21H124.647Z" fill="white"/>
<path d="M144 21V0H139.806V12.8595L131.298 0H127.557V21H131.751V8.11095L140.259 21H144Z" fill="white"/>
<path d="M7.70852e-07 -7.14705e-08L1.90735e-06 13L7.76238 6.86294L7.76238 -7.50079e-07L7.70852e-07 -7.14705e-08ZM13.2376 -1.22874e-06L13.2376 13L21 6.86294L21 -1.90735e-06L13.2376 -1.22874e-06Z" fill="#A8856B"/>
</svg>
