<svg width="116" height="36" viewBox="0 0 116 36" fill="none" xmlns="http://www.w3.org/2000/svg">
<path d="M0 27.4005H3.32296V16.6971H9.32573C9.56691 16.6971 9.79469 16.6972 10.0225 16.6838L15.8109 27.4005H19.6698L13.466 16.0817C16.9632 14.891 18.5979 12.0412 18.5979 8.40209C18.5979 3.55885 15.7037 0 9.27213 0H0V27.4005ZM3.32296 13.7002V2.94341H9.16494C13.6134 2.94341 15.3285 5.11083 15.3285 8.40209C15.3285 11.6934 13.6134 13.7002 9.21854 13.7002H3.32296Z" fill="#AFB1B8"/>
<path d="M29.4729 27.8286C33.6534 27.8286 36.7084 25.7414 37.6731 22.6375L34.6182 21.7812C33.8142 23.9219 31.9517 24.9922 29.4729 24.9922C25.7614 24.9922 23.2022 22.5973 23.0548 18.1956H37.9947V16.8577C37.9947 9.20484 33.439 6.58253 29.1513 6.58253C23.5773 6.58253 19.8792 10.9709 19.8792 17.2858C19.8792 23.6008 23.5237 27.8286 29.4729 27.8286ZM23.0548 15.4663C23.2692 12.2687 25.5336 9.4189 29.1513 9.4189C32.5815 9.4189 34.7789 11.9877 34.7789 15.4663H23.0548Z" fill="#AFB1B8"/>
<path d="M48.4711 35.535C53.402 35.535 57.3681 33.2873 57.3681 27.9891V6.85011H54.3131V10.1146H53.9915C53.2948 9.04429 52.0085 6.58253 47.9888 6.58253C42.79 6.58253 39.199 10.7033 39.199 17.0182C39.199 23.4402 42.9507 27.0794 47.9352 27.0794C51.9549 27.0794 53.2412 24.7246 53.938 23.6008H54.2059V27.7751C54.2059 31.2001 51.7941 32.7521 48.4711 32.7521C44.7328 32.7521 43.4197 30.7854 42.5756 29.6481L40.0566 31.4142C41.3429 33.5682 43.8753 35.535 48.4711 35.535ZM48.364 24.243C44.3978 24.243 42.3612 21.2461 42.3612 16.9647C42.3612 12.7904 44.3442 9.4189 48.364 9.4189C52.2229 9.4189 54.2595 12.5229 54.2595 16.9647C54.2595 21.5136 52.1693 24.243 48.364 24.243Z" fill="#AFB1B8"/>
<path d="M73.4855 18.9984C73.4855 22.8515 70.5377 24.6176 68.1795 24.6176C65.5533 24.6176 63.6774 22.691 63.6774 19.6941V6.85011H60.5153V19.9081C60.5153 25.1528 63.3023 27.668 67.1612 27.668C70.2698 27.668 72.3064 26.009 73.2711 23.9219H73.4855V27.4005H76.6477V6.85011H73.4855V18.9984Z" fill="#AFB1B8"/>
<path d="M82.9604 0H79.7982V27.4005H82.9604V0Z" fill="#AFB1B8"/>
<path d="M92.1673 27.8821C95.7582 27.8821 97.6341 25.9555 98.2772 24.6176H98.438V27.4005H101.6V13.8608C101.6 7.33176 96.6157 6.58253 93.9895 6.58253C90.881 6.58253 87.3436 7.65286 85.7357 11.399L88.7371 12.4693C89.4339 10.9709 91.0819 9.36539 94.0967 9.36539C97.0043 9.36539 98.438 10.904 98.438 13.5397V13.6467C98.438 15.1719 96.8837 15.0381 93.132 15.5198C89.3133 16.0148 85.1462 16.8577 85.1462 21.5672C85.1462 25.5809 88.2548 27.8821 92.1673 27.8821ZM92.6496 25.0457C90.1306 25.0457 88.3084 23.9219 88.3084 21.7277C88.3084 19.3195 90.5058 18.5702 92.9712 18.2491C94.3111 18.0886 97.9021 17.714 98.438 17.0718V19.9617C98.438 22.5304 96.4014 25.0457 92.6496 25.0457Z" fill="#AFB1B8"/>
<path d="M104.731 27.4005H107.893V14.3959C107.893 11.6131 110.09 9.57945 113.092 9.57945C113.936 9.57945 114.807 9.74 115.021 9.79352V6.58253C114.659 6.55577 113.829 6.52901 113.36 6.52901C110.894 6.52901 108.75 7.92044 108 9.95407H107.786V6.85011H104.731V27.4005Z" fill="#AFB1B8"/>
</svg>
