<svg width="87" height="28" viewBox="0 0 87 28" fill="none" xmlns="http://www.w3.org/2000/svg">
<path d="M12.9776 5.70136H15.556C15.4378 2.43891 12.376 0 8.12176 0C3.91047 0 0.601612 2.40724 0.601612 6.03922C0.601612 8.95324 2.75022 10.6848 6.188 11.6561L8.89526 12.4163C11.2158 13.0498 13.2784 13.8522 13.2784 16.006C13.2784 18.371 10.9579 19.9336 7.90689 19.9336C5.28559 19.9336 2.96508 18.7934 2.75022 16.3439H0C0.257834 19.8914 3.17995 22.2986 7.90689 22.2986C12.9776 22.2986 15.8568 19.5535 15.8568 16.0483C15.8568 11.994 11.9463 10.6848 9.66876 10.0935L7.4342 9.50226C5.80125 9.07994 3.17995 8.23529 3.17995 5.91252C3.17995 3.84314 5.1137 2.32278 8.03581 2.32278C10.7001 2.32278 12.7198 3.56863 12.9776 5.70136Z" fill="#AFB1B8"/>
<path d="M22.4288 12.1629C22.4288 9.33333 24.2659 7.72851 26.769 7.72851C29.154 7.72851 30.5936 9.20664 30.5936 11.7828V21.9186H33.1289V11.6139C33.1289 7.44344 30.8729 5.4902 27.4996 5.4902C24.8997 5.4902 23.4172 6.55656 22.6437 8.23529H22.4288V0.295626H19.8935V21.9186H22.4288V12.1629Z" fill="#AFB1B8"/>
<path d="M42.6231 22.2986C45.5022 22.2986 47.0063 20.7783 47.5219 19.7225H47.6508V21.9186H50.1862V11.2338C50.1862 6.08145 46.1898 5.4902 44.0842 5.4902C41.5918 5.4902 38.7556 6.33484 37.4664 9.2911L39.8729 10.1357C40.4315 8.95324 41.7529 7.68627 44.1701 7.68627C46.5013 7.68627 47.6508 8.90045 47.6508 10.9804V11.0649C47.6508 12.2685 46.4047 12.1629 43.3966 12.543C40.3348 12.9336 36.9937 13.5988 36.9937 17.3152C36.9937 20.4827 39.4861 22.2986 42.6231 22.2986ZM43.0098 20.0603C40.9902 20.0603 39.5291 19.1735 39.5291 17.4419C39.5291 15.5415 41.291 14.9502 43.2677 14.6968C44.342 14.5701 47.2211 14.2745 47.6508 13.7677V16.0483C47.6508 18.0754 46.0179 20.0603 43.0098 20.0603Z" fill="#AFB1B8"/>
<path d="M54.8138 28H57.3491V19.4268H57.564C58.1226 20.3137 59.197 22.2564 62.3769 22.2564C66.5022 22.2564 69.3814 19.0045 69.3814 13.8522C69.3814 8.74208 66.5022 5.4902 62.3339 5.4902C59.111 5.4902 58.1226 7.43288 57.564 8.27753H57.2632V5.70136H54.8138V28ZM57.3062 13.81C57.3062 10.178 58.9391 7.72851 62.0331 7.72851C65.256 7.72851 66.846 10.3891 66.846 13.81C66.846 17.273 65.2131 20.0181 62.0331 20.0181C58.9821 20.0181 57.3062 17.4842 57.3062 13.81Z" fill="#AFB1B8"/>
<path d="M80.1674 22.2564C83.5192 22.2564 85.9687 20.6094 86.7422 18.1599L84.2927 17.4842C83.6482 19.1735 82.1549 20.0181 80.1674 20.0181C77.1916 20.0181 75.1397 18.1282 75.0215 14.6546H87V13.5988C87 7.55958 83.3474 5.4902 79.9096 5.4902C75.4405 5.4902 72.4754 8.95324 72.4754 13.9367C72.4754 18.9201 75.3975 22.2564 80.1674 22.2564ZM75.0215 12.5008C75.1934 9.97738 77.009 7.72851 79.9096 7.72851C82.6598 7.72851 84.4217 9.75566 84.4217 12.5008H75.0215Z" fill="#AFB1B8"/>
</svg>
