<svg width="147" height="31" viewBox="0 0 147 31" fill="none" xmlns="http://www.w3.org/2000/svg">
<path d="M8.34572 23.3533C7.08705 23.3533 5.72172 23.1613 4.24972 22.7773C2.77772 22.3933 1.61505 21.8599 0.761719 21.1773V17.5933C0.761719 17.4866 0.793719 17.4013 0.857719 17.3373C0.921719 17.2519 1.01772 17.2093 1.14572 17.2093C1.35905 17.2093 1.51905 17.2946 1.62572 17.4653C1.73239 17.6146 1.82839 17.8813 1.91372 18.2653L2.29772 20.3773C2.98039 20.9106 3.87639 21.3159 4.98572 21.5933C6.11639 21.8493 7.20439 21.9773 8.24972 21.9773C9.93505 21.9773 11.3537 21.6573 12.5057 21.0173C13.6791 20.3773 14.2657 19.3533 14.2657 17.9453C14.2657 17.0279 14.0417 16.2706 13.5937 15.6733C13.1457 15.0759 12.4631 14.5426 11.5457 14.0732C10.6497 13.5826 9.32705 12.9959 7.57772 12.3133C5.35905 11.4386 3.68439 10.5213 2.55372 9.56125C1.42305 8.57992 0.857719 7.34258 0.857719 5.84925C0.857719 3.99325 1.56172 2.62792 2.96972 1.75325C4.37772 0.85725 6.09505 0.40925 8.12172 0.40925C9.42305 0.40925 10.7137 0.611917 11.9937 1.01725C13.2737 1.42258 14.3191 1.97725 15.1297 2.68125V6.13725C15.1297 6.39325 15.0017 6.52125 14.7457 6.52125C14.5324 6.52125 14.3617 6.44658 14.2337 6.29725C14.1271 6.12658 14.0417 5.84925 13.9777 5.46525L13.6257 3.38525C12.9644 2.85192 12.1537 2.45725 11.1937 2.20125C10.2337 1.92392 9.23105 1.78525 8.18572 1.78525C6.64972 1.78525 5.36972 2.09458 4.34572 2.71325C3.34305 3.33192 2.84172 4.28125 2.84172 5.56125C2.84172 6.43592 3.08705 7.17192 3.57772 7.76925C4.08972 8.36658 4.76172 8.87858 5.59372 9.30525C6.44705 9.73192 7.72705 10.2866 9.43372 10.9692C11.0551 11.6092 12.3351 12.2279 13.2737 12.8253C14.2337 13.4013 14.9591 14.0839 15.4497 14.8733C15.9617 15.6626 16.2177 16.6333 16.2177 17.7853C16.2177 19.6839 15.4711 21.0919 13.9777 22.0093C12.5057 22.9053 10.6284 23.3533 8.34572 23.3533Z" fill="#AFB1B8"/>
<path d="M25.5865 23.3533C23.3038 23.3533 21.5331 22.6279 20.2745 21.1773C19.0158 19.7053 18.3865 17.7106 18.3865 15.1933C18.3865 12.6973 19.0158 10.7239 20.2745 9.27325C21.5331 7.80125 23.3038 7.06525 25.5865 7.06525C27.8478 7.06525 29.6078 7.80125 30.8665 9.27325C32.1251 10.7239 32.7545 12.6973 32.7545 15.1933C32.7545 17.7106 32.1251 19.7053 30.8665 21.1773C29.6078 22.6279 27.8478 23.3533 25.5865 23.3533ZM25.5865 22.1053C27.2505 22.1053 28.5518 21.4973 29.4905 20.2813C30.4505 19.0653 30.9305 17.3693 30.9305 15.1933C30.9305 13.0386 30.4505 11.3533 29.4905 10.1373C28.5518 8.92125 27.2505 8.31325 25.5865 8.31325C23.9225 8.31325 22.6105 8.92125 21.6505 10.1373C20.6905 11.3533 20.2105 13.0386 20.2105 15.1933C20.2105 17.3693 20.6905 19.0653 21.6505 20.2813C22.6105 21.4973 23.9225 22.1053 25.5865 22.1053Z" fill="#AFB1B8"/>
<path d="M34.911 23.0013C34.6336 23.0013 34.495 22.8306 34.495 22.4893C34.495 22.0413 34.7936 21.8173 35.391 21.8173H36.575V8.56925H34.911C34.6336 8.56925 34.495 8.39858 34.495 8.05725C34.495 7.60925 34.7936 7.38525 35.391 7.38525H38.239V9.65725H38.367C40.1376 7.92925 41.9083 7.06525 43.679 7.06525C44.639 7.06525 45.503 7.29992 46.271 7.76925C47.039 8.23858 47.583 8.92125 47.903 9.81725C48.7776 8.98525 49.6523 8.32392 50.527 7.83325C51.423 7.32125 52.4043 7.06525 53.471 7.06525C54.7936 7.06525 55.8923 7.48125 56.767 8.31325C57.663 9.12392 58.111 10.3079 58.111 11.8652V21.8173L59.679 22.0733C59.935 22.1159 60.1056 22.1906 60.191 22.2973C60.2976 22.3826 60.351 22.5106 60.351 22.6813C60.351 22.8946 60.255 23.0013 60.063 23.0013H54.591C54.3136 23.0013 54.175 22.8306 54.175 22.4893C54.175 22.0413 54.4736 21.8173 55.071 21.8173H56.319V11.9613C56.319 10.8093 56.0096 9.93458 55.391 9.33725C54.7936 8.71858 54.0043 8.40925 53.023 8.40925C52.191 8.40925 51.359 8.64392 50.527 9.11325C49.7163 9.58258 48.9483 10.2012 48.223 10.9692V21.8173L49.887 22.0733C50.335 22.1373 50.559 22.3399 50.559 22.6813C50.559 22.8946 50.463 23.0013 50.271 23.0013H44.799C44.5216 23.0013 44.383 22.8306 44.383 22.4893C44.383 22.0413 44.6816 21.8173 45.279 21.8173H46.431V11.9613C46.431 10.8093 46.1323 9.93458 45.535 9.33725C44.9376 8.71858 44.159 8.40925 43.199 8.40925C42.3456 8.40925 41.503 8.64392 40.671 9.11325C39.8603 9.58258 39.0923 10.2119 38.367 11.0013V21.8173L40.031 22.0733C40.479 22.1373 40.703 22.3399 40.703 22.6813C40.703 22.8946 40.607 23.0013 40.415 23.0013H34.911Z" fill="#AFB1B8"/>
<path d="M69.0467 23.3533C67.5534 23.3533 66.2414 23.0226 65.1107 22.3613C64.0014 21.6999 63.1481 20.7613 62.5507 19.5453C61.9534 18.3293 61.6547 16.9106 61.6547 15.2893C61.6547 12.8146 62.2841 10.8306 63.5427 9.33725C64.8014 7.82258 66.5614 7.06525 68.8227 7.06525C70.8707 7.06525 72.4707 7.67325 73.6227 8.88925C74.7747 10.0839 75.3507 11.6839 75.3507 13.6893C75.3507 14.2653 75.2227 14.8733 74.9667 15.5133H63.4787C63.4787 17.6253 64.0014 19.2573 65.0467 20.4093C66.1134 21.5399 67.4681 22.1053 69.1107 22.1053C70.7321 22.1053 72.1401 21.6679 73.3347 20.7933C73.3774 20.7719 73.452 20.7293 73.5587 20.6653C73.6654 20.5799 73.772 20.5373 73.8787 20.5373C74.028 20.5373 74.1561 20.6013 74.2627 20.7293C74.3694 20.8359 74.4227 20.9746 74.4227 21.1453C74.4227 21.3159 74.348 21.4866 74.1987 21.6573C74.0494 21.8066 73.8254 21.9773 73.5267 22.1693C72.2681 22.9586 70.7747 23.3533 69.0467 23.3533ZM73.3987 14.2653C73.4841 13.9666 73.5267 13.6679 73.5267 13.3693C73.5267 11.7479 73.0894 10.4999 72.2147 9.62525C71.34 8.75058 70.2094 8.31325 68.8227 8.31325C67.3294 8.31325 66.1027 8.84658 65.1427 9.91325C64.1827 10.9586 63.6387 12.4093 63.5107 14.2653H73.3987Z" fill="#AFB1B8"/>
<path d="M83.245 23.3533C82.1783 23.3533 81.293 23.0333 80.589 22.3933C79.885 21.7319 79.533 20.8039 79.533 19.6093V8.72925H77.357C77.2503 8.72925 77.1543 8.67592 77.069 8.56925C76.9836 8.46258 76.941 8.33458 76.941 8.18525C76.941 7.95058 77.0156 7.76925 77.165 7.64125C77.3356 7.49192 77.5596 7.41725 77.837 7.41725H79.533L79.885 4.12125H81.325V7.41725H86.189C86.4023 7.41725 86.509 7.53458 86.509 7.76925C86.509 7.96125 86.413 8.09992 86.221 8.18525C86.0503 8.27058 85.773 8.33458 85.389 8.37725L81.325 8.72925V19.7373C81.325 20.5053 81.517 21.0919 81.901 21.4973C82.3063 21.8813 82.8503 22.0733 83.533 22.0733C84.0023 22.0733 84.4183 22.0093 84.781 21.8813C85.1436 21.7319 85.485 21.5079 85.805 21.2093C85.997 21.0173 86.1676 20.9213 86.317 20.9213C86.4663 20.9213 86.5836 20.9746 86.669 21.0813C86.7756 21.1666 86.829 21.3053 86.829 21.4973C86.829 21.6466 86.7543 21.8173 86.605 22.0093C86.4556 22.2013 86.253 22.3826 85.997 22.5533C85.165 23.0866 84.2476 23.3533 83.245 23.3533Z" fill="#AFB1B8"/>
<path d="M89.002 23.0013C88.7246 23.0013 88.586 22.8306 88.586 22.4893C88.586 22.0413 88.8846 21.8173 89.482 21.8173H90.666V1.46525H89.002C88.7246 1.46525 88.586 1.29458 88.586 0.953251C88.586 0.50525 88.8846 0.28125 89.482 0.28125H92.394V9.59325L92.458 9.65725C94.2713 7.92925 96.1593 7.06525 98.122 7.06525C99.594 7.06525 100.821 7.50258 101.802 8.37725C102.805 9.25192 103.306 10.4466 103.306 11.9613V21.7853L104.97 22.0733C105.439 22.1373 105.674 22.3399 105.674 22.6813C105.674 22.8946 105.567 23.0013 105.354 23.0013H99.85C99.5726 23.0013 99.434 22.8306 99.434 22.4893C99.434 22.0413 99.7326 21.8173 100.33 21.8173H101.514V12.0893C101.514 10.9799 101.173 10.0839 100.49 9.40125C99.8073 8.71858 98.8686 8.37725 97.674 8.37725C96.7566 8.37725 95.8393 8.63325 94.922 9.14525C94.0046 9.63592 93.1833 10.2972 92.458 11.1292V21.7853L94.122 22.0733C94.378 22.1159 94.5593 22.1906 94.666 22.2973C94.7726 22.3826 94.826 22.5106 94.826 22.6813C94.826 22.8946 94.7193 23.0013 94.506 23.0013H89.002Z" fill="#AFB1B8"/>
<path d="M109.97 4.66525C109.565 4.66525 109.224 4.53725 108.946 4.28125C108.69 4.00392 108.562 3.65192 108.562 3.22525C108.562 2.79858 108.69 2.45725 108.946 2.20125C109.224 1.94525 109.565 1.81725 109.97 1.81725C110.376 1.81725 110.706 1.94525 110.962 2.20125C111.24 2.45725 111.378 2.79858 111.378 3.22525C111.378 3.67325 111.24 4.02525 110.962 4.28125C110.706 4.53725 110.376 4.66525 109.97 4.66525ZM107.442 23.0013C107.165 23.0013 107.026 22.8306 107.026 22.4893C107.026 22.0413 107.325 21.8173 107.922 21.8173H109.138V8.56925H107.442C107.165 8.56925 107.026 8.39858 107.026 8.05725C107.026 7.60925 107.325 7.38525 107.922 7.38525H110.93V21.7853L112.562 22.0733C113.032 22.1799 113.266 22.3826 113.266 22.6813C113.266 22.8946 113.16 23.0013 112.946 23.0013H107.442Z" fill="#AFB1B8"/>
<path d="M115.08 23.0013C114.802 23.0013 114.664 22.8306 114.664 22.4893C114.664 22.0413 114.962 21.8173 115.56 21.8173H116.744V8.56925H115.08C114.802 8.56925 114.664 8.39858 114.664 8.05725C114.664 7.60925 114.962 7.38525 115.56 7.38525H118.408V9.68925H118.536C120.37 7.93992 122.258 7.06525 124.2 7.06525C125.672 7.06525 126.898 7.50258 127.88 8.37725C128.882 9.25192 129.384 10.4466 129.384 11.9613V21.7853L131.048 22.0733C131.304 22.1159 131.485 22.1906 131.592 22.2973C131.698 22.3826 131.752 22.5106 131.752 22.6813C131.752 22.8946 131.645 23.0013 131.432 23.0013H125.928C125.65 23.0013 125.512 22.8306 125.512 22.4893C125.512 22.0413 125.81 21.8173 126.408 21.8173H127.592V12.0893C127.592 10.9799 127.25 10.0946 126.568 9.43325C125.906 8.75058 124.968 8.40925 123.752 8.40925C122.834 8.40925 121.917 8.65458 121 9.14525C120.082 9.63592 119.261 10.2972 118.536 11.1292V21.7853L120.2 22.0733C120.456 22.1159 120.637 22.1906 120.744 22.2973C120.85 22.3826 120.904 22.5106 120.904 22.6813C120.904 22.8946 120.797 23.0013 120.584 23.0013H115.08Z" fill="#AFB1B8"/>
<path d="M140.306 30.2653C139.432 30.2653 138.546 30.1479 137.65 29.9132C136.776 29.6999 136.008 29.4119 135.346 29.0493C134.706 28.6653 134.386 28.3133 134.386 27.9933C134.386 27.8013 134.44 27.6519 134.546 27.5452C134.653 27.4386 134.77 27.3853 134.898 27.3853C134.984 27.3853 135.069 27.4173 135.154 27.4813C135.261 27.5453 135.346 27.5986 135.41 27.6413C136.114 28.0893 136.882 28.4306 137.714 28.6653C138.568 28.8999 139.421 29.0173 140.274 29.0173C143.517 29.0173 145.138 27.4919 145.138 24.4413V20.6973H145.01C144.498 21.4866 143.816 22.1266 142.962 22.6173C142.109 23.1079 141.074 23.3533 139.858 23.3533C138.578 23.3533 137.416 23.0653 136.37 22.4893C135.346 21.8919 134.525 20.9959 133.906 19.8013C133.288 18.6066 132.978 17.1133 132.978 15.3213C132.978 13.5506 133.309 12.0466 133.97 10.8092C134.653 9.57192 135.57 8.64392 136.722 8.02525C137.874 7.38525 139.165 7.06525 140.594 7.06525C141.682 7.06525 142.802 7.28925 143.954 7.73725C145.128 8.16392 146.098 8.71858 146.866 9.40125V24.1213C146.866 26.0626 146.312 27.5666 145.202 28.6333C144.114 29.7213 142.482 30.2653 140.306 30.2653ZM140.274 22.1053C141.106 22.1053 141.896 21.9133 142.642 21.5293C143.389 21.1239 143.986 20.5799 144.434 19.8973C144.882 19.1933 145.106 18.4146 145.106 17.5613V9.81725C144.445 9.34792 143.72 8.98525 142.93 8.72925C142.141 8.45192 141.352 8.31325 140.562 8.31325C139.496 8.31325 138.525 8.57992 137.65 9.11325C136.797 9.62525 136.114 10.4146 135.602 11.4813C135.09 12.5266 134.834 13.8173 134.834 15.3533C134.834 17.4439 135.304 19.0973 136.242 20.3133C137.181 21.5079 138.525 22.1053 140.274 22.1053Z" fill="#AFB1B8"/>
</svg>
